<?xml version="1.0" standalone="no"?>
<!DOCTYPE svg PUBLIC "-//W3C//DTD SVG 20010904//EN"
 "http://www.w3.org/TR/2001/REC-SVG-20010904/DTD/svg10.dtd">
<svg version="1.0" xmlns="http://www.w3.org/2000/svg"
 width="1089.000000pt" height="1280.000000pt" viewBox="0 0 1089.000000 1280.000000"
 preserveAspectRatio="xMidYMid meet">
<g transform="translate(0.000000,1280.000000) scale(0.100000,-0.100000)"
fill="#000000" stroke="none">
<path d="M5215 12779 c-333 -38 -601 -112 -830 -229 -156 -79 -243 -139 -348
-239 -130 -124 -211 -248 -253 -386 -10 -33 -22 -66 -27 -72 -7 -10 -71 -13
-258 -13 l-249 0 0 -98 c0 -63 -4 -102 -12 -110 -8 -8 -56 -12 -148 -12 l-136
0 -72 -73 -72 -72 0 -108 c0 -60 -5 -117 -10 -128 -11 -19 -37 -19 -1399 -19
l-1388 0 -6 -82 c-19 -236 -3 -518 38 -681 81 -323 348 -626 1035 -1177 221
-177 357 -302 425 -390 94 -122 147 -272 166 -474 l12 -126 558 0 c499 0 557
-2 563 -16 3 -9 6 -73 6 -143 l0 -127 70 -69 70 -70 148 -5 147 -5 0 -25 0
-25 -145 -3 -145 -3 -72 -71 -72 -72 -3 -125 -3 -126 -1396 -3 -1397 -2 -6
-31 c-3 -17 -6 -133 -6 -258 0 -521 91 -739 465 -1116 162 -164 306 -289 623
-544 388 -312 482 -423 546 -645 14 -46 30 -141 37 -210 l12 -126 552 0 c415
0 554 -3 563 -12 8 -8 12 -54 12 -143 l0 -131 73 -71 72 -72 145 -3 145 -3 0
-25 0 -25 -147 -5 -148 -5 -69 -69 -70 -70 -3 -125 -3 -126 -1393 -3 -1393 -2
-9 -26 c-6 -14 -10 -128 -10 -253 0 -471 65 -672 312 -966 152 -182 357 -368
768 -700 274 -222 389 -331 457 -436 81 -125 114 -233 136 -442 l12 -112 560
-5 560 -5 3 -135 3 -135 72 -73 71 -72 136 0 c92 0 140 -4 148 -12 8 -8 12
-47 12 -110 l0 -98 2188 0 2189 0 6 163 c9 212 9 11302 0 11515 l-6 162 -226
0 c-124 0 -230 4 -236 8 -5 4 -23 45 -38 92 -119 353 -495 635 -1027 769 -135
34 -246 53 -452 76 -168 18 -229 18 -433 -6z"/>
<path d="M7652 9743 l3 -1878 138 -3 139 -3 74 72 74 72 0 128 c0 70 3 134 6
143 6 14 64 16 563 16 l557 0 12 123 c16 158 41 251 96 362 74 147 157 231
506 513 687 555 944 847 1025 1169 41 163 57 445 38 681 l-6 82 -1386 0
c-1066 0 -1390 3 -1399 12 -8 8 -12 51 -12 128 l0 116 -73 72 -72 72 -143 0
-142 0 2 -1877z"/>
<path d="M7657 7793 c-4 -3 -7 -849 -7 -1880 l0 -1873 142 0 143 0 72 72 73
72 0 131 c0 89 4 135 12 143 9 9 148 12 563 12 l551 0 12 125 c7 69 24 164 38
211 64 223 157 333 545 644 658 529 917 811 1021 1110 59 171 84 473 61 757
l-6 83 -1396 2 -1396 3 -3 125 -3 125 -72 73 -71 72 -137 0 c-74 0 -139 -3
-142 -7z"/>
<path d="M7657 3973 c-4 -3 -7 -849 -7 -1880 l0 -1873 143 0 143 0 71 73 72
72 3 135 3 135 560 5 560 5 12 120 c24 224 74 362 181 497 71 89 135 148 367
336 451 365 662 556 812 736 242 288 314 503 312 926 -1 107 -4 222 -8 255
l-6 60 -1395 5 -1395 5 -3 126 -3 126 -73 72 -74 71 -134 0 c-74 0 -138 -3
-141 -7z"/>
</g>
</svg>
